{
    "asset" : {
        "generator" : "Khronos glTF Blender I/O v1.1.46",
        "version" : "2.0"
    },
    "scene" : 0,
    "scenes" : [
        {
            "name" : "Scene",
            "nodes" : [
                1
            ]
        }
    ],
    "nodes" : [
        {
            "mesh" : 0,
            "name" : "MeshFrames",
            "translation" : [
                0,
                -0.28032904863357544,
                0.3496270179748535
            ]
        },
        {
            "children" : [
                0
            ],
            "name" : "paint 1"
        }
    ],
    "materials" : [
        {
            "doubleSided" : true,
            "emissiveFactor" : [
                0,
                0,
                0
            ],
            "name" : "Material.001",
            "pbrMetallicRoughness" : {
                "metallicFactor" : 0,
                "roughnessFactor" : 0.5
            }
        }
    ],
    "meshes" : [
        {
            "name" : "FrameMesh.001",
            "primitives" : [
                {
                    "attributes" : {
                        "POSITION" : 0,
                        "NORMAL" : 1,
                        "COLOR_0" : 2
                    },
                    "indices" : 3,
                    "material" : 0
                }
            ]
        }
    ],
    "accessors" : [
        {
            "bufferView" : 0,
            "componentType" : 5126,
            "count" : 38123,
            "max" : [
                0.08774279803037643,
                0.42335718870162964,
                -0.25557854771614075
            ],
            "min" : [
                -0.03225049376487732,
                0.29060137271881104,
                -0.40697526931762695
            ],
            "type" : "VEC3"
        },
        {
            "bufferView" : 1,
            "componentType" : 5126,
            "count" : 38123,
            "type" : "VEC3"
        },
        {
            "bufferView" : 2,
            "componentType" : 5126,
            "count" : 38123,
            "type" : "VEC4"
        },
        {
            "bufferView" : 3,
            "componentType" : 5123,
            "count" : 38208,
            "type" : "SCALAR"
        }
    ],
    "bufferViews" : [
        {
            "buffer" : 0,
            "byteLength" : 457476,
            "byteOffset" : 0
        },
        {
            "buffer" : 0,
            "byteLength" : 457476,
            "byteOffset" : 457476
        },
        {
            "buffer" : 0,
            "byteLength" : 609968,
            "byteOffset" : 914952
        },
        {
            "buffer" : 0,
            "byteLength" : 76416,
            "byteOffset" : 1524920
        }
    ],
    "buffers" : [
        {
            "byteLength" : 1601336,
            "uri" : "data:application/octet-stream;base64,"
        }
    ]
}
